Coordinates
version=1
nRows=22
nColumns=24
inDegrees=yes

Units are S.I. units (second, meters, Newtons, ...)
Angles are in degrees.

endheader
time	pelvis_tilt	pelvis_list	pelvis_rotation	pelvis_tx	pelvis_ty	pelvis_tz	hip_flexion_r	hip_adduction_r	hip_rotation_r	knee_angle_r	ankle_angle_r	subtalar_angle_r	mtp_angle_r	hip_flexion_l	hip_adduction_l	hip_rotation_l	knee_angle_l	ankle_angle_l	subtalar_angle_l	mtp_angle_l	lumbar_extension	lumbar_bending	lumbar_rotation
      1.15433333	     -1.36472216	      4.67511586	     -3.56754457	      0.16001135	      0.90478883	      0.31491341	     19.83709996	     -7.85318845	     -6.42335273	    -78.66562809	     -4.21639071	      2.03710789	      5.47164915	     12.40241200	      7.93655785	     -3.65102722	    -20.90739920	     12.31033056	     -5.89153994	      1.08814322	     -7.90933743	     -7.39008805	      0.87077408
      1.15850000	     -1.40562017	      4.51532277	     -3.48492399	      0.16503365	      0.90574665	      0.31468271	     20.55902080	     -7.57967209	     -6.48626568	    -78.64931133	     -3.94852248	      1.93673483	      5.44734124	     11.83540877	      7.82354368	     -3.51575013	    -20.42405704	     12.37300269	     -5.78954342	      1.08616344	     -7.88434791	     -7.21024179	      0.81995981
      1.16266667	     -1.42977356	      4.32438625	     -3.36397520	      0.17003351	      0.90673803	      0.31439558	     21.22539150	     -7.27923398	     -6.59261120	    -78.54416632	     -3.65912306	      1.82797185	      5.38253634	     11.25069551	      7.69170126	     -3.28888608	    -19.94199603	     12.37686710	     -5.79897631	      1.07502640	     -7.92195881	     -6.96451710	      0.65517107
      1.16683333	     -1.47171070	      4.16031653	     -3.26641935	      0.17507170	      0.90766611	      0.31414644	     21.90848506	     -6.99736619	     -6.65848894	    -78.38411952	     -3.43580691	      1.77630995	      5.35634679	     10.67395521	      7.57477753	     -3.13025010	    -19.42944647	     12.43173342	     -5.72718275	      1.07151798	     -7.88028096	     -6.77843984	      0.55568528
      1.17100000	     -1.47315752	      3.96792771	     -3.13041990	      0.18008061	      0.90867047	      0.31381639	     22.50770157	     -6.70656404	     -6.77656073	    -78.13006690	     -3.19506258	      1.76076655	      5.24778035	     10.03819275	      7.45404089	     -2.81291947	    -18.88455705	     12.41469291	     -5.86705418	      1.04837810	     -7.95182202	     -6.52897263	      0.23063823
      1.17516667	     -1.52002269	      3.77397545	     -3.00530899	      0.18507515	      0.90955737	      0.31354423	     23.14933801	     -6.39270614	     -6.86698815	    -77.82431753	     -2.90947247	      1.74995829	      5.20544469	      9.48198848	      7.30012192	     -2.62986542	    -18.39436411	     12.39245340	     -5.81860339	      1.03834409	     -7.93987971	     -6.28886706	      0.12201602
      1.17933333	     -1.54213711	      3.57234355	     -2.87459965	      0.19007938	      0.91046381	      0.31326177	     23.73856106	     -6.07632233	     -6.96498847	    -77.44226501	     -2.65316897	      1.77853043	      5.16323927	      8.88735319	      7.14145616	     -2.41725153	    -17.87987875	     12.39492557	     -5.80368067	      1.02770263	     -7.95664802	     -6.03912883	     -0.03674664
      1.18350000	     -1.53813219	      3.39045933	     -2.73947447	      0.19508878	      0.91137791	      0.31295304	     24.28271223	     -5.79412772	     -7.06542308	    -77.00107451	     -2.41264479	      1.83507789	      5.08340778	      8.24589804	      7.01384120	     -2.15026551	    -17.31999961	     12.39955723	     -5.87872141	      1.00668011	     -8.00558098	     -5.81494483	     -0.30198950
      1.18766667	     -1.57819842	      3.18485550	     -2.60168673	      0.20005779	      0.91219060	      0.31268829	     24.85789110	     -5.46880988	     -7.15796512	    -76.49402536	     -2.13515303	      1.88877937	      5.05072083	      7.68771122	      6.83628489	     -1.96801676	    -16.82635088	     12.36419726	     -5.83269795	      0.99642880	     -8.00218170	     -5.56225515	     -0.41981493
      1.19183333	     -1.56916338	      3.00453241	     -2.46015662	      0.20505013	      0.91304123	      0.31239175	     25.35951512	     -5.19033675	     -7.25646397	    -75.92935453	     -1.87087629	      1.96935526	      4.95827166	      7.04270995	      6.70131638	     -1.70592304	    -16.25715904	     12.32641614	     -5.91696459	      0.96917271	     -8.05173649	     -5.34769230	     -0.69951690
      1.19600000	     -1.59395265	      2.79236671	     -2.31673894	      0.20999320	      0.91380327	      0.31213120	     25.87913952	     -4.86433639	     -7.35333077	    -75.29317619	     -1.60984357	      2.06442584	      4.92895435	      6.47527081	      6.51033413	     -1.52617390	    -15.76985947	     12.32634630	     -5.86585090	      0.96010578	     -8.07443355	     -5.07696630	     -0.80787416
      1.20016667	     -1.56872969	      2.60560464	     -2.17797927	      0.21495861	      0.91459180	      0.31186238	     26.32748420	     -4.57915682	     -7.44753352	    -74.60612394	     -1.35519960	      2.16172373	      4.87522006	      5.82566365	      6.35455404	     -1.30449461	    -15.21970836	     12.32675011	     -5.88891610	      0.94471164	     -8.14805097	     -4.84624750	     -1.03520753
      1.20433333	     -1.58634357	      2.40032571	     -2.02956135	      0.21987596	      0.91528055	      0.31162684	     26.80250003	     -4.26406061	     -7.54140308	    -73.85118190	     -1.08334734	      2.25465322	      4.84844292	      5.25655632	      6.16188321	     -1.13076553	    -14.73020211	     12.29029147	     -5.84894810	      0.93611380	     -8.17630147	     -4.59764328	     -1.17479665
      1.20850000	     -1.57771693	      2.20423858	     -1.88611858	      0.22480384	      0.91595958	      0.31138853	     27.23071755	     -3.96799605	     -7.63559645	    -73.04076649	     -0.82495572	      2.34681789	      4.82253727	      4.64890722	      5.97988558	     -0.95182077	    -14.21744541	     12.27558890	     -5.82296279	      0.92871808	     -8.22893001	     -4.35624023	     -1.34886560
      1.21266667	     -1.53716159	      2.03497622	     -1.74655753	      0.22972606	      0.91662330	      0.31115100	     27.61265121	     -3.70794566	     -7.72046559	    -72.18773909	     -0.58046914	      2.42940674	      4.77145902	      3.98893221	      5.83178191	     -0.73437813	    -13.66072919	     12.26765192	     -5.86937724	      0.91694909	     -8.32408161	     -4.14845399	     -1.61086203
      1.21683333	     -1.54114176	      1.84068931	     -1.59651947	      0.23461215	      0.91718642	      0.31094871	     28.01797839	     -3.41053281	     -7.80627104	    -71.26224076	     -0.32198259	      2.50774537	      4.74526541	      3.41730338	      5.63829848	     -0.58189933	    -13.18036067	     12.23348619	     -5.82938452	      0.91127046	     -8.36646088	     -3.91561590	     -1.75430372
      1.22100000	     -1.51824829	      1.66048764	     -1.45579132	      0.23949500	      0.91772847	      0.31075623	     28.37922121	     -3.13362906	     -7.88539910	    -70.28755010	     -0.07765980	      2.56676678	      4.71897513	      2.80895609	      5.45982474	     -0.43006996	    -12.68056139	     12.22267385	     -5.79467015	      0.90741608	     -8.43864265	     -3.69474848	     -1.92958663
      1.22516667	     -1.47583775	      1.49990865	     -1.31811598	      0.24437869	      0.91823516	      0.31057641	     28.70492722	     -2.88139237	     -7.95741898	    -69.26921977	      0.14386114	      2.59682386	      4.67907147	      2.16759886	      5.30235990	     -0.25847293	    -12.15186496	     12.22706356	     -5.79339630	      0.90426958	     -8.53811687	     -3.50263810	     -2.16072574
      1.22933333	     -1.46989658	      1.33043081	     -1.17802426	      0.24923598	      0.91863937	      0.31041654	     29.04914649	     -2.61503298	     -8.02572591	    -68.18958258	      0.38406720	      2.62253684	      4.65451369	      1.59888856	      5.12461673	     -0.13877692	    -11.68775299	     12.19853653	     -5.74403080	      0.90363959	     -8.58902568	     -3.29775866	     -2.31407955
      1.23350000	     -1.44195076	      1.17136112	     -1.04155238	      0.25409395	      0.91901772	      0.31027458	     29.35078404	     -2.36098206	     -8.08764718	    -67.05954076	      0.60277570	      2.61188525	      4.62937329	      0.99906244	      4.95568659	     -0.01634700	    -11.20575590	     12.19459249	     -5.69390161	      0.90530897	     -8.66854763	     -3.10688948	     -2.49160769
      1.23766667	     -1.40945445	      1.02230151	     -0.90588647	      0.25894295	      0.91934678	      0.31013982	     29.62901842	     -2.11802548	     -8.14193938	    -65.87910396	      0.80580904	      2.57597367	      4.60179869	      0.39801870	      4.79522631	      0.09663702	    -10.72645551	     12.19404794	     -5.64570164	      0.90898162	     -8.75424099	     -2.92644317	     -2.68384581
      1.24183333	     -1.38329906	      0.88216351	     -0.77739019	      0.26378975	      0.91959924	      0.31003006	     29.89799088	     -1.88090676	     -8.18363532	    -64.65418586	      1.00330308	      2.51653111	      4.57483881	     -0.19083163	      4.64030479	      0.19400529	    -10.25892932	     12.19474267	     -5.58708194	      0.91457261	     -8.83086340	     -2.76019985	     -2.86618721
